<svg xmlns="http://www.w3.org/2000/svg" xmlns:xlink="http://www.w3.org/1999/xlink" width="200" zoomAndPan="magnify" viewBox="0 0 150 74.999997" height="100" preserveAspectRatio="xMidYMid meet" version="1.0"><defs><clipPath id="id1"><path d="M 0 0 L 75.75 0 L 75.75 54.75 L 0 54.75 Z M 0 0 " clip-rule="nonzero"/></clipPath><clipPath id="id2"><path d="M 7.09375 47.152344 C 7.09375 47.289062 7.066406 47.417969 7.015625 47.546875 C 6.964844 47.671875 6.890625 47.78125 6.792969 47.878906 C 6.695312 47.976562 6.585938 48.050781 6.460938 48.101562 C 6.332031 48.15625 6.203125 48.179688 6.066406 48.183594 C 5.929688 48.183594 5.796875 48.15625 5.671875 48.101562 C 5.546875 48.050781 5.433594 47.976562 5.335938 47.878906 C 5.242188 47.785156 5.167969 47.671875 5.113281 47.546875 C 5.0625 47.421875 5.035156 47.289062 5.035156 47.152344 C 5.035156 47.015625 5.0625 46.882812 5.113281 46.757812 C 5.167969 46.632812 5.242188 46.519531 5.335938 46.425781 C 5.433594 46.328125 5.546875 46.253906 5.671875 46.203125 C 5.796875 46.148438 5.929688 46.121094 6.066406 46.121094 C 6.203125 46.121094 6.332031 46.148438 6.457031 46.199219 C 6.585938 46.253906 6.695312 46.328125 6.792969 46.425781 C 6.886719 46.519531 6.964844 46.632812 7.015625 46.757812 C 7.066406 46.882812 7.09375 47.015625 7.09375 47.152344 Z M 75.46875 47.152344 C 75.46875 47.417969 75.441406 47.679688 75.390625 47.941406 C 75.339844 48.199219 75.261719 48.453125 75.160156 48.699219 C 75.058594 48.941406 74.933594 49.175781 74.785156 49.394531 C 74.640625 49.617188 74.472656 49.820312 74.285156 50.007812 C 74.097656 50.195312 73.894531 50.363281 73.671875 50.511719 C 73.453125 50.660156 73.21875 50.785156 72.972656 50.886719 C 72.730469 50.988281 72.476562 51.0625 72.21875 51.117188 C 71.957031 51.167969 71.695312 51.195312 71.429688 51.195312 L 69.085938 51.195312 C 68.230469 52.296875 67.175781 53.15625 65.925781 53.773438 C 64.675781 54.386719 63.351562 54.695312 61.957031 54.699219 L 13.710938 54.699219 C 12.3125 54.699219 10.992188 54.386719 9.738281 53.773438 C 8.484375 53.15625 7.433594 52.296875 6.578125 51.195312 L 4.238281 51.195312 C 3.707031 51.1875 3.195312 51.078125 2.707031 50.871094 C 2.21875 50.660156 1.789062 50.367188 1.417969 49.988281 C 1.046875 49.613281 0.757812 49.175781 0.558594 48.683594 C 0.355469 48.195312 0.253906 47.683594 0.253906 47.152344 C 0.253906 46.621094 0.355469 46.109375 0.558594 45.617188 C 0.757812 45.125 1.046875 44.691406 1.417969 44.3125 C 1.789062 43.9375 2.21875 43.640625 2.707031 43.433594 C 3.195312 43.226562 3.707031 43.117188 4.238281 43.109375 L 5.226562 43.109375 L 5.226562 5.914062 C 5.226562 5.523438 5.265625 5.136719 5.339844 4.753906 C 5.417969 4.371094 5.53125 4 5.679688 3.640625 C 5.828125 3.277344 6.011719 2.933594 6.230469 2.609375 C 6.445312 2.285156 6.691406 1.984375 6.96875 1.710938 C 7.242188 1.433594 7.542969 1.1875 7.867188 0.96875 C 8.191406 0.753906 8.535156 0.570312 8.894531 0.421875 C 9.257812 0.269531 9.628906 0.15625 10.011719 0.0820312 C 10.394531 0.00390625 10.78125 -0.0351562 11.167969 -0.0351562 L 64.496094 -0.0351562 C 64.886719 -0.0351562 65.273438 0.00390625 65.65625 0.0820312 C 66.039062 0.15625 66.410156 0.269531 66.769531 0.421875 C 67.128906 0.570312 67.472656 0.753906 67.796875 0.96875 C 68.121094 1.1875 68.421875 1.433594 68.699219 1.710938 C 68.972656 1.984375 69.21875 2.285156 69.4375 2.609375 C 69.652344 2.933594 69.835938 3.277344 69.988281 3.640625 C 70.136719 4 70.25 4.371094 70.324219 4.753906 C 70.402344 5.136719 70.441406 5.523438 70.441406 5.914062 L 70.441406 43.109375 L 71.429688 43.109375 C 71.695312 43.109375 71.957031 43.136719 72.21875 43.1875 C 72.476562 43.238281 72.730469 43.316406 72.972656 43.417969 C 73.21875 43.519531 73.453125 43.644531 73.671875 43.792969 C 73.894531 43.941406 74.097656 44.105469 74.285156 44.292969 C 74.472656 44.480469 74.640625 44.6875 74.785156 44.90625 C 74.933594 45.128906 75.058594 45.359375 75.160156 45.605469 C 75.261719 45.851562 75.339844 46.101562 75.390625 46.363281 C 75.441406 46.625 75.46875 46.886719 75.46875 47.152344 Z M 6.90625 43.109375 L 8.144531 43.109375 L 8.144531 10.636719 C 8.144531 10.277344 8.179688 9.921875 8.25 9.570312 C 8.320312 9.214844 8.425781 8.875 8.5625 8.542969 C 8.699219 8.210938 8.867188 7.894531 9.070312 7.59375 C 9.269531 7.296875 9.496094 7.019531 9.75 6.765625 C 10.003906 6.511719 10.28125 6.285156 10.578125 6.082031 C 10.878906 5.882812 11.191406 5.714844 11.523438 5.578125 C 11.855469 5.441406 12.199219 5.335938 12.550781 5.265625 C 12.90625 5.195312 13.261719 5.160156 13.621094 5.160156 L 62.046875 5.160156 C 62.40625 5.160156 62.761719 5.195312 63.113281 5.265625 C 63.464844 5.335938 63.808594 5.441406 64.140625 5.578125 C 64.472656 5.714844 64.789062 5.882812 65.085938 6.082031 C 65.386719 6.285156 65.664062 6.511719 65.917969 6.765625 C 66.171875 7.019531 66.398438 7.296875 66.597656 7.59375 C 66.796875 7.894531 66.964844 8.210938 67.105469 8.542969 C 67.242188 8.875 67.34375 9.214844 67.414062 9.570312 C 67.488281 9.921875 67.523438 10.277344 67.523438 10.636719 L 67.523438 43.109375 L 68.757812 43.109375 L 68.757812 5.914062 C 68.757812 5.632812 68.730469 5.355469 68.675781 5.082031 C 68.621094 4.808594 68.542969 4.539062 68.433594 4.28125 C 68.328125 4.023438 68.195312 3.777344 68.039062 3.546875 C 67.882812 3.3125 67.707031 3.097656 67.507812 2.898438 C 67.3125 2.699219 67.097656 2.523438 66.863281 2.367188 C 66.632812 2.210938 66.386719 2.082031 66.128906 1.972656 C 65.867188 1.867188 65.601562 1.785156 65.328125 1.730469 C 65.054688 1.675781 64.777344 1.648438 64.496094 1.648438 L 11.167969 1.648438 C 10.890625 1.648438 10.613281 1.675781 10.339844 1.730469 C 10.0625 1.785156 9.796875 1.867188 9.539062 1.972656 C 9.28125 2.082031 9.035156 2.210938 8.800781 2.367188 C 8.570312 2.523438 8.355469 2.699219 8.15625 2.898438 C 7.957031 3.097656 7.78125 3.3125 7.625 3.546875 C 7.46875 3.777344 7.339844 4.023438 7.230469 4.28125 C 7.125 4.539062 7.042969 4.808594 6.988281 5.082031 C 6.933594 5.355469 6.90625 5.632812 6.90625 5.914062 Z M 65.839844 43.109375 L 65.839844 10.636719 C 65.839844 10.132812 65.742188 9.648438 65.550781 9.183594 C 65.359375 8.71875 65.082031 8.308594 64.726562 7.953125 C 64.371094 7.597656 63.960938 7.324219 63.496094 7.132812 C 63.03125 6.9375 62.550781 6.839844 62.046875 6.839844 L 13.621094 6.839844 C 13.117188 6.839844 12.632812 6.9375 12.167969 7.132812 C 11.703125 7.324219 11.292969 7.597656 10.9375 7.953125 C 10.582031 8.308594 10.308594 8.71875 10.113281 9.183594 C 9.921875 9.648438 9.824219 10.132812 9.824219 10.636719 L 9.824219 43.109375 Z M 29.464844 44.792969 C 29.480469 45 29.539062 45.195312 29.632812 45.382812 C 29.726562 45.570312 29.847656 45.734375 30.003906 45.875 C 30.15625 46.015625 30.332031 46.121094 30.523438 46.195312 C 30.71875 46.273438 30.921875 46.308594 31.128906 46.308594 L 44.535156 46.308594 C 44.746094 46.308594 44.945312 46.273438 45.140625 46.195312 C 45.335938 46.121094 45.507812 46.015625 45.664062 45.875 C 45.816406 45.734375 45.941406 45.570312 46.035156 45.382812 C 46.128906 45.195312 46.183594 45 46.203125 44.792969 Z M 66.804688 51.195312 L 8.859375 51.195312 C 9.53125 51.78125 10.285156 52.230469 11.121094 52.546875 C 11.953125 52.859375 12.816406 53.019531 13.710938 53.019531 L 61.957031 53.019531 C 62.847656 53.019531 63.710938 52.859375 64.546875 52.546875 C 65.378906 52.230469 66.132812 51.78125 66.804688 51.195312 Z M 73.789062 47.152344 C 73.789062 46.839844 73.726562 46.539062 73.605469 46.25 C 73.488281 45.960938 73.316406 45.703125 73.097656 45.484375 C 72.875 45.261719 72.621094 45.089844 72.332031 44.972656 C 72.042969 44.851562 71.742188 44.792969 71.429688 44.792969 L 47.875 44.792969 C 47.855469 45.222656 47.757812 45.632812 47.578125 46.023438 C 47.402344 46.417969 47.15625 46.761719 46.847656 47.0625 C 46.535156 47.359375 46.179688 47.589844 45.78125 47.75 C 45.382812 47.910156 44.96875 47.992188 44.535156 47.992188 L 31.128906 47.992188 C 30.699219 47.992188 30.285156 47.910156 29.882812 47.75 C 29.484375 47.589844 29.128906 47.359375 28.820312 47.0625 C 28.507812 46.761719 28.265625 46.417969 28.085938 46.023438 C 27.910156 45.632812 27.808594 45.222656 27.789062 44.792969 L 4.238281 44.792969 C 3.929688 44.796875 3.632812 44.863281 3.347656 44.984375 C 3.0625 45.105469 2.8125 45.277344 2.597656 45.5 C 2.382812 45.71875 2.214844 45.972656 2.097656 46.257812 C 1.980469 46.546875 1.921875 46.84375 1.921875 47.152344 C 1.921875 47.460938 1.980469 47.757812 2.097656 48.046875 C 2.214844 48.332031 2.382812 48.585938 2.597656 48.804688 C 2.8125 49.027344 3.0625 49.199219 3.347656 49.320312 C 3.632812 49.441406 3.929688 49.507812 4.238281 49.511719 L 71.429688 49.511719 C 71.742188 49.511719 72.042969 49.453125 72.332031 49.332031 C 72.621094 49.210938 72.875 49.039062 73.097656 48.820312 C 73.316406 48.597656 73.488281 48.34375 73.609375 48.054688 C 73.726562 47.765625 73.789062 47.464844 73.789062 47.152344 Z M 13.621094 8.523438 C 13.339844 8.523438 13.070312 8.578125 12.8125 8.683594 C 12.550781 8.792969 12.324219 8.945312 12.125 9.144531 C 11.929688 9.339844 11.773438 9.570312 11.667969 9.828125 C 11.558594 10.085938 11.507812 10.355469 11.503906 10.636719 L 11.503906 12.171875 C 11.503906 12.402344 11.585938 12.601562 11.753906 12.765625 C 11.917969 12.929688 12.113281 13.011719 12.347656 13.011719 C 12.578125 13.011719 12.777344 12.929688 12.941406 12.765625 C 13.105469 12.601562 13.1875 12.402344 13.1875 12.171875 L 13.1875 10.636719 C 13.1875 10.519531 13.230469 10.414062 13.3125 10.332031 C 13.398438 10.246094 13.5 10.203125 13.621094 10.203125 C 13.851562 10.203125 14.050781 10.121094 14.214844 9.957031 C 14.378906 9.792969 14.460938 9.597656 14.460938 9.363281 C 14.460938 9.132812 14.378906 8.933594 14.214844 8.769531 C 14.050781 8.605469 13.851562 8.523438 13.621094 8.523438 Z M 12.347656 14.164062 C 12.113281 14.164062 11.917969 14.246094 11.753906 14.410156 C 11.585938 14.574219 11.503906 14.769531 11.503906 15.003906 L 11.503906 23.285156 C 11.503906 23.515625 11.585938 23.714844 11.753906 23.878906 C 11.917969 24.042969 12.113281 24.125 12.347656 24.125 C 12.578125 24.125 12.777344 24.042969 12.941406 23.878906 C 13.105469 23.714844 13.1875 23.515625 13.1875 23.285156 L 13.1875 15.003906 C 13.1875 14.769531 13.105469 14.574219 12.941406 14.410156 C 12.777344 14.246094 12.578125 14.164062 12.347656 14.164062 Z M 12.742188 46.308594 L 8.984375 46.308594 C 8.753906 46.308594 8.554688 46.390625 8.390625 46.558594 C 8.226562 46.722656 8.144531 46.917969 8.144531 47.152344 C 8.144531 47.382812 8.226562 47.582031 8.390625 47.746094 C 8.554688 47.910156 8.753906 47.992188 8.984375 47.992188 L 12.742188 47.992188 C 12.972656 47.992188 13.171875 47.910156 13.335938 47.746094 C 13.5 47.582031 13.582031 47.382812 13.582031 47.152344 C 13.582031 46.917969 13.5 46.722656 13.335938 46.558594 C 13.171875 46.390625 12.972656 46.308594 12.742188 46.308594 Z M 34.589844 4.5 C 34.726562 4.5 34.855469 4.476562 34.980469 4.421875 C 35.109375 4.371094 35.21875 4.296875 35.316406 4.199219 C 35.414062 4.105469 35.488281 3.992188 35.539062 3.867188 C 35.59375 3.738281 35.617188 3.609375 35.617188 3.472656 C 35.617188 3.335938 35.59375 3.203125 35.539062 3.078125 C 35.488281 2.953125 35.414062 2.839844 35.316406 2.742188 C 35.21875 2.648438 35.109375 2.574219 34.984375 2.519531 C 34.855469 2.46875 34.726562 2.441406 34.589844 2.441406 C 34.453125 2.441406 34.320312 2.46875 34.195312 2.519531 C 34.070312 2.574219 33.957031 2.648438 33.863281 2.742188 C 33.765625 2.839844 33.691406 2.953125 33.640625 3.078125 C 33.585938 3.203125 33.558594 3.335938 33.558594 3.472656 C 33.558594 3.609375 33.585938 3.738281 33.640625 3.867188 C 33.691406 3.992188 33.765625 4.101562 33.863281 4.199219 C 33.957031 4.296875 34.070312 4.371094 34.195312 4.421875 C 34.320312 4.476562 34.453125 4.5 34.589844 4.5 Z M 37.507812 4.3125 L 41.265625 4.3125 C 41.496094 4.3125 41.695312 4.230469 41.859375 4.066406 C 42.023438 3.902344 42.105469 3.703125 42.105469 3.472656 C 42.105469 3.238281 42.023438 3.042969 41.859375 2.878906 C 41.695312 2.710938 41.496094 2.628906 41.265625 2.628906 L 37.507812 2.628906 C 37.277344 2.628906 37.078125 2.710938 36.914062 2.878906 C 36.75 3.042969 36.667969 3.238281 36.667969 3.472656 C 36.667969 3.703125 36.75 3.902344 36.914062 4.066406 C 37.078125 4.230469 37.277344 4.3125 37.507812 4.3125 Z M 30.621094 25.566406 C 30.484375 25.566406 30.355469 25.59375 30.226562 25.644531 C 30.101562 25.699219 29.988281 25.773438 29.894531 25.867188 C 29.796875 25.964844 29.722656 26.074219 29.671875 26.203125 C 29.617188 26.328125 29.59375 26.460938 29.59375 26.597656 C 29.59375 26.734375 29.617188 26.863281 29.671875 26.988281 C 29.722656 27.117188 29.796875 27.226562 29.894531 27.324219 C 29.988281 27.421875 30.101562 27.496094 30.226562 27.546875 C 30.355469 27.597656 30.484375 27.625 30.621094 27.625 C 30.757812 27.625 30.890625 27.597656 31.015625 27.546875 C 31.140625 27.496094 31.253906 27.421875 31.347656 27.324219 C 31.445312 27.226562 31.519531 27.117188 31.570312 26.988281 C 31.625 26.863281 31.648438 26.734375 31.648438 26.597656 C 31.648438 26.460938 31.625 26.328125 31.570312 26.203125 C 31.519531 26.074219 31.445312 25.964844 31.347656 25.867188 C 31.253906 25.773438 31.140625 25.699219 31.015625 25.644531 C 30.890625 25.59375 30.757812 25.566406 30.621094 25.566406 Z M 45.234375 25.753906 L 33.539062 25.753906 C 33.308594 25.753906 33.109375 25.835938 32.945312 26 C 32.78125 26.164062 32.699219 26.363281 32.699219 26.597656 C 32.699219 26.828125 32.78125 27.027344 32.945312 27.191406 C 33.109375 27.355469 33.308594 27.4375 33.539062 27.4375 L 45.230469 27.4375 C 45.460938 27.4375 45.660156 27.355469 45.824219 27.191406 C 45.988281 27.027344 46.070312 26.828125 46.070312 26.597656 C 46.070312 26.363281 45.988281 26.164062 45.824219 26 C 45.660156 25.835938 45.460938 25.753906 45.230469 25.753906 Z M 30.621094 28.949219 C 30.484375 28.949219 30.351562 28.976562 30.226562 29.027344 C 30.101562 29.078125 29.988281 29.15625 29.894531 29.25 C 29.796875 29.347656 29.722656 29.457031 29.671875 29.585938 C 29.617188 29.710938 29.59375 29.84375 29.59375 29.980469 C 29.59375 30.117188 29.617188 30.246094 29.671875 30.371094 C 29.722656 30.5 29.796875 30.609375 29.894531 30.707031 C 29.992188 30.804688 30.101562 30.878906 30.226562 30.929688 C 30.355469 30.980469 30.484375 31.007812 30.621094 31.007812 C 30.757812 31.007812 30.890625 30.980469 31.015625 30.929688 C 31.140625 30.878906 31.253906 30.804688 31.347656 30.707031 C 31.445312 30.609375 31.519531 30.5 31.570312 30.371094 C 31.625 30.246094 31.648438 30.113281 31.648438 29.976562 C 31.648438 29.839844 31.625 29.710938 31.570312 29.585938 C 31.519531 29.457031 31.445312 29.347656 31.347656 29.25 C 31.25 29.152344 31.140625 29.078125 31.015625 29.027344 C 30.890625 28.976562 30.757812 28.949219 30.621094 28.949219 Z M 33.539062 30.820312 L 41.265625 30.820312 C 41.496094 30.820312 41.695312 30.738281 41.859375 30.574219 C 42.023438 30.410156 42.105469 30.210938 42.105469 29.980469 C 42.105469 29.746094 42.023438 29.546875 41.859375 29.382812 C 41.695312 29.21875 41.496094 29.136719 41.265625 29.136719 L 33.539062 29.136719 C 33.308594 29.136719 33.109375 29.21875 32.945312 29.382812 C 32.78125 29.546875 32.699219 29.746094 32.699219 29.980469 C 32.699219 30.210938 32.78125 30.410156 32.945312 30.574219 C 33.109375 30.738281 33.308594 30.820312 33.539062 30.820312 Z M 30.621094 32.328125 C 30.484375 32.328125 30.355469 32.355469 30.226562 32.40625 C 30.101562 32.460938 29.988281 32.535156 29.894531 32.628906 C 29.796875 32.726562 29.722656 32.839844 29.671875 32.964844 C 29.617188 33.089844 29.59375 33.222656 29.59375 33.359375 C 29.59375 33.496094 29.617188 33.625 29.671875 33.75 C 29.722656 33.878906 29.796875 33.988281 29.894531 34.085938 C 29.988281 34.183594 30.101562 34.257812 30.226562 34.308594 C 30.355469 34.359375 30.484375 34.386719 30.621094 34.386719 C 30.757812 34.386719 30.890625 34.359375 31.015625 34.308594 C 31.140625 34.257812 31.253906 34.183594 31.347656 34.085938 C 31.445312 33.988281 31.519531 33.878906 31.570312 33.75 C 31.625 33.625 31.648438 33.496094 31.648438 33.359375 C 31.648438 33.222656 31.625 33.089844 31.570312 32.964844 C 31.519531 32.839844 31.445312 32.726562 31.347656 32.628906 C 31.253906 32.535156 31.140625 32.460938 31.015625 32.40625 C 30.890625 32.355469 30.757812 32.328125 30.621094 32.328125 Z M 45.234375 32.515625 L 33.539062 32.515625 C 33.308594 32.515625 33.109375 32.597656 32.945312 32.761719 C 32.78125 32.925781 32.699219 33.125 32.699219 33.359375 C 32.699219 33.589844 32.78125 33.789062 32.945312 33.953125 C 33.109375 34.117188 33.308594 34.199219 33.539062 34.199219 L 45.230469 34.199219 C 45.460938 34.199219 45.660156 34.117188 45.824219 33.953125 C 45.988281 33.789062 46.070312 33.589844 46.070312 33.359375 C 46.070312 33.125 45.988281 32.925781 45.824219 32.761719 C 45.660156 32.597656 45.460938 32.515625 45.230469 32.515625 Z M 32.964844 19.265625 L 28.707031 15.003906 L 32.964844 10.742188 C 33.050781 10.664062 33.121094 10.574219 33.171875 10.46875 C 33.21875 10.363281 33.246094 10.253906 33.25 10.136719 C 33.253906 10.023438 33.234375 9.910156 33.191406 9.800781 C 33.148438 9.695312 33.085938 9.597656 33.003906 9.515625 C 32.921875 9.433594 32.828125 9.371094 32.722656 9.328125 C 32.613281 9.285156 32.5 9.265625 32.386719 9.269531 C 32.269531 9.273438 32.160156 9.300781 32.054688 9.347656 C 31.949219 9.398438 31.859375 9.464844 31.78125 9.550781 L 26.929688 14.410156 C 26.765625 14.574219 26.683594 14.773438 26.683594 15.003906 C 26.683594 15.234375 26.765625 15.433594 26.929688 15.597656 L 31.78125 20.453125 C 31.945312 20.613281 32.144531 20.691406 32.371094 20.691406 C 32.601562 20.6875 32.796875 20.605469 32.960938 20.445312 C 33.121094 20.28125 33.203125 20.085938 33.207031 19.855469 C 33.207031 19.628906 33.128906 19.429688 32.96875 19.265625 Z M 43.890625 9.550781 C 43.730469 9.382812 43.53125 9.296875 43.296875 9.296875 C 43.058594 9.292969 42.859375 9.375 42.695312 9.542969 C 42.527344 9.707031 42.445312 9.910156 42.449219 10.144531 C 42.449219 10.378906 42.535156 10.578125 42.703125 10.742188 L 46.960938 15.003906 L 42.703125 19.265625 C 42.535156 19.429688 42.449219 19.628906 42.449219 19.863281 C 42.445312 20.097656 42.527344 20.296875 42.695312 20.464844 C 42.859375 20.632812 43.058594 20.714844 43.296875 20.710938 C 43.53125 20.707031 43.730469 20.625 43.890625 20.453125 L 48.746094 15.597656 C 48.910156 15.433594 48.992188 15.234375 48.992188 15.003906 C 48.992188 14.773438 48.910156 14.574219 48.746094 14.410156 Z M 34.867188 19.949219 C 35.066406 20.066406 35.277344 20.101562 35.503906 20.042969 C 35.730469 19.988281 35.902344 19.859375 36.019531 19.660156 L 41.085938 11.210938 C 41.207031 11.011719 41.238281 10.800781 41.183594 10.574219 C 41.125 10.351562 40.996094 10.175781 40.796875 10.058594 C 40.601562 9.9375 40.386719 9.90625 40.164062 9.964844 C 39.9375 10.019531 39.765625 10.148438 39.644531 10.347656 L 34.578125 18.796875 C 34.460938 18.992188 34.429688 19.207031 34.484375 19.433594 C 34.539062 19.65625 34.667969 19.828125 34.867188 19.949219 Z M 34.867188 19.949219 " clip-rule="nonzero"/></clipPath><linearGradient x1="50" gradientTransform="matrix(0.840533, 0, 0, 0.841014, -4.193677, -14.717743)" y1="82.541003" x2="50" gradientUnits="userSpaceOnUse" y2="17.500002" id="id3"><stop stop-opacity="1" stop-color="rgb(0.799561%, 0%, 53.29895%)" offset="0"/><stop stop-opacity="1" stop-color="rgb(0.971985%, 0.43335%, 53.530884%)" offset="0.00390625"/><stop stop-opacity="1" stop-color="rgb(1.144409%, 0.868225%, 53.764343%)" offset="0.0078125"/><stop stop-opacity="1" stop-color="rgb(1.316833%, 1.303101%, 53.996277%)" offset="0.0117187"/><stop stop-opacity="1" stop-color="rgb(1.490784%, 1.737976%, 54.22821%)" offset="0.015625"/><stop stop-opacity="1" stop-color="rgb(1.663208%, 2.172852%, 54.460144%)" offset="0.0195312"/><stop stop-opacity="1" stop-color="rgb(1.837158%, 2.607727%, 54.692078%)" offset="0.0234375"/><stop stop-opacity="1" stop-color="rgb(2.009583%, 3.042603%, 54.924011%)" offset="0.0273438"/><stop stop-opacity="1" stop-color="rgb(2.183533%, 3.477478%, 55.157471%)" offset="0.03125"/><stop stop-opacity="1" stop-color="rgb(2.355957%, 3.912354%, 55.389404%)" offset="0.0351562"/><stop stop-opacity="1" stop-color="rgb(2.528381%, 4.347229%, 55.621338%)" offset="0.0390625"/><stop stop-opacity="1" stop-color="rgb(2.700806%, 4.782104%, 55.853271%)" offset="0.0429688"/><stop stop-opacity="1" stop-color="rgb(2.874756%, 5.21698%, 56.086731%)" offset="0.046875"/><stop stop-opacity="1" stop-color="rgb(3.04718%, 5.651855%, 56.318665%)" offset="0.0507812"/><stop stop-opacity="1" stop-color="rgb(3.22113%, 6.086731%, 56.550598%)" offset="0.0546875"/><stop stop-opacity="1" stop-color="rgb(3.393555%, 6.521606%, 56.782532%)" offset="0.0585938"/><stop stop-opacity="1" stop-color="rgb(3.565979%, 6.956482%, 57.015991%)" offset="0.0625"/><stop stop-opacity="1" stop-color="rgb(3.738403%, 7.391357%, 57.247925%)" offset="0.0664062"/><stop stop-opacity="1" stop-color="rgb(3.912354%, 7.826233%, 57.479858%)" offset="0.0703125"/><stop stop-opacity="1" stop-color="rgb(4.084778%, 8.261108%, 57.711792%)" offset="0.0742188"/><stop stop-opacity="1" stop-color="rgb(4.258728%, 8.695984%, 57.943726%)" offset="0.078125"/><stop stop-opacity="1" stop-color="rgb(4.431152%, 9.130859%, 58.175659%)" offset="0.0820312"/><stop stop-opacity="1" stop-color="rgb(4.603577%, 9.565735%, 58.409119%)" offset="0.0859375"/><stop stop-opacity="1" stop-color="rgb(4.776001%, 10.00061%, 58.641052%)" offset="0.0898438"/><stop stop-opacity="1" stop-color="rgb(4.949951%, 10.435486%, 58.872986%)" offset="0.09375"/><stop stop-opacity="1" stop-color="rgb(5.122375%, 10.870361%, 59.104919%)" offset="0.0976562"/><stop stop-opacity="1" stop-color="rgb(5.296326%, 11.305237%, 59.338379%)" offset="0.101562"/><stop stop-opacity="1" stop-color="rgb(5.46875%, 11.740112%, 59.570312%)" offset="0.105469"/><stop stop-opacity="1" stop-color="rgb(5.641174%, 12.174988%, 59.802246%)" offset="0.109375"/><stop stop-opacity="1" stop-color="rgb(5.813599%, 12.609863%, 60.03418%)" offset="0.113281"/><stop stop-opacity="1" stop-color="rgb(5.987549%, 13.044739%, 60.266113%)" offset="0.117188"/><stop stop-opacity="1" stop-color="rgb(6.159973%, 13.479614%, 60.498047%)" offset="0.121094"/><stop stop-opacity="1" stop-color="rgb(6.333923%, 13.91449%, 60.731506%)" offset="0.125"/><stop stop-opacity="1" stop-color="rgb(6.506348%, 14.349365%, 60.96344%)" offset="0.128906"/><stop stop-opacity="1" stop-color="rgb(6.680298%, 14.784241%, 61.195374%)" offset="0.132812"/><stop stop-opacity="1" stop-color="rgb(6.852722%, 15.219116%, 61.427307%)" offset="0.136719"/><stop stop-opacity="1" stop-color="rgb(7.025146%, 15.653992%, 61.660767%)" offset="0.140625"/><stop stop-opacity="1" stop-color="rgb(7.197571%, 16.088867%, 61.8927%)" offset="0.144531"/><stop stop-opacity="1" stop-color="rgb(7.371521%, 16.523743%, 62.124634%)" offset="0.148437"/><stop stop-opacity="1" stop-color="rgb(7.543945%, 16.958618%, 62.356567%)" offset="0.152344"/><stop stop-opacity="1" stop-color="rgb(7.717896%, 17.393494%, 62.590027%)" offset="0.15625"/><stop stop-opacity="1" stop-color="rgb(7.884216%, 17.811584%, 62.808228%)" offset="0.160156"/><stop stop-opacity="1" stop-color="rgb(8.052063%, 18.231201%, 63.026428%)" offset="0.164062"/><stop stop-opacity="1" stop-color="rgb(8.216858%, 18.644714%, 63.240051%)" offset="0.167969"/><stop stop-opacity="1" stop-color="rgb(8.381653%, 19.059753%, 63.4552%)" offset="0.171875"/><stop stop-opacity="1" stop-color="rgb(8.546448%, 19.473267%, 63.668823%)" offset="0.175781"/><stop stop-opacity="1" stop-color="rgb(8.712769%, 19.88678%, 63.883972%)" offset="0.179687"/><stop stop-opacity="1" stop-color="rgb(8.877563%, 20.300293%, 64.097595%)" offset="0.183594"/><stop stop-opacity="1" stop-color="rgb(9.042358%, 20.715332%, 64.311218%)" offset="0.1875"/><stop stop-opacity="1" stop-color="rgb(9.207153%, 21.128845%, 64.524841%)" offset="0.191406"/><stop stop-opacity="1" stop-color="rgb(9.373474%, 21.542358%, 64.73999%)" offset="0.195312"/><stop stop-opacity="1" stop-color="rgb(9.538269%, 21.955872%, 64.953613%)" offset="0.199219"/><stop stop-opacity="1" stop-color="rgb(9.703064%, 22.370911%, 65.168762%)" offset="0.203125"/><stop stop-opacity="1" stop-color="rgb(9.867859%, 22.784424%, 65.382385%)" offset="0.207031"/><stop stop-opacity="1" stop-color="rgb(10.03418%, 23.199463%, 65.597534%)" offset="0.210937"/><stop stop-opacity="1" stop-color="rgb(10.198975%, 23.612976%, 65.811157%)" offset="0.214844"/><stop stop-opacity="1" stop-color="rgb(10.365295%, 24.026489%, 66.026306%)" offset="0.21875"/><stop stop-opacity="1" stop-color="rgb(10.53009%, 24.440002%, 66.239929%)" offset="0.222656"/><stop stop-opacity="1" stop-color="rgb(10.694885%, 24.855042%, 66.455078%)" offset="0.226562"/><stop stop-opacity="1" stop-color="rgb(10.85968%, 25.268555%, 66.668701%)" offset="0.230469"/><stop stop-opacity="1" stop-color="rgb(11.026001%, 25.683594%, 66.882324%)" offset="0.234375"/><stop stop-opacity="1" stop-color="rgb(11.190796%, 26.097107%, 67.095947%)" offset="0.238281"/><stop stop-opacity="1" stop-color="rgb(11.355591%, 26.51062%, 67.311096%)" offset="0.242187"/><stop stop-opacity="1" stop-color="rgb(11.520386%, 26.924133%, 67.524719%)" offset="0.246094"/><stop stop-opacity="1" stop-color="rgb(11.686707%, 27.339172%, 67.739868%)" offset="0.25"/><stop stop-opacity="1" stop-color="rgb(11.851501%, 27.752686%, 67.953491%)" offset="0.253906"/><stop stop-opacity="1" stop-color="rgb(12.016296%, 28.166199%, 68.16864%)" offset="0.257812"/><stop stop-opacity="1" stop-color="rgb(12.181091%, 28.579712%, 68.382263%)" offset="0.261719"/><stop stop-opacity="1" stop-color="rgb(12.347412%, 28.994751%, 68.597412%)" offset="0.265625"/><stop stop-opacity="1" stop-color="rgb(12.512207%, 29.408264%, 68.811035%)" offset="0.269531"/><stop stop-opacity="1" stop-color="rgb(12.678528%, 29.823303%, 69.024658%)" offset="0.273438"/><stop stop-opacity="1" stop-color="rgb(12.843323%, 30.236816%, 69.238281%)" offset="0.277344"/><stop stop-opacity="1" stop-color="rgb(13.008118%, 30.65033%, 69.45343%)" offset="0.28125"/><stop stop-opacity="1" stop-color="rgb(13.172913%, 31.063843%, 69.667053%)" offset="0.285156"/><stop stop-opacity="1" stop-color="rgb(13.339233%, 31.478882%, 69.882202%)" offset="0.289062"/><stop stop-opacity="1" stop-color="rgb(13.504028%, 31.892395%, 70.095825%)" offset="0.292969"/><stop stop-opacity="1" stop-color="rgb(13.668823%, 32.305908%, 70.310974%)" offset="0.296875"/><stop stop-opacity="1" stop-color="rgb(13.833618%, 32.719421%, 70.524597%)" offset="0.300781"/><stop stop-opacity="1" stop-color="rgb(13.999939%, 33.13446%, 70.739746%)" offset="0.304688"/><stop stop-opacity="1" stop-color="rgb(14.164734%, 33.547974%, 70.953369%)" offset="0.308594"/><stop stop-opacity="1" stop-color="rgb(14.329529%, 33.963013%, 71.168518%)" offset="0.3125"/><stop stop-opacity="1" stop-color="rgb(14.494324%, 34.376526%, 71.382141%)" offset="0.316406"/><stop stop-opacity="1" stop-color="rgb(14.660645%, 34.790039%, 71.595764%)" offset="0.320312"/><stop stop-opacity="1" stop-color="rgb(14.825439%, 35.203552%, 71.809387%)" offset="0.324219"/><stop stop-opacity="1" stop-color="rgb(14.99176%, 35.618591%, 72.024536%)" offset="0.328125"/><stop stop-opacity="1" stop-color="rgb(15.156555%, 36.032104%, 72.238159%)" offset="0.332031"/><stop stop-opacity="1" stop-color="rgb(15.32135%, 36.447144%, 72.453308%)" offset="0.335938"/><stop stop-opacity="1" stop-color="rgb(15.486145%, 36.860657%, 72.666931%)" offset="0.339844"/><stop stop-opacity="1" stop-color="rgb(15.652466%, 37.27417%, 72.88208%)" offset="0.34375"/><stop stop-opacity="1" stop-color="rgb(15.817261%, 37.687683%, 73.095703%)" offset="0.347656"/><stop stop-opacity="1" stop-color="rgb(15.982056%, 38.102722%, 73.310852%)" offset="0.351562"/><stop stop-opacity="1" stop-color="rgb(16.146851%, 38.516235%, 73.524475%)" offset="0.355469"/><stop stop-opacity="1" stop-color="rgb(16.313171%, 38.929749%, 73.739624%)" offset="0.359375"/><stop stop-opacity="1" stop-color="rgb(16.477966%, 39.343262%, 73.953247%)" offset="0.363281"/><stop stop-opacity="1" stop-color="rgb(16.642761%, 39.758301%, 74.16687%)" offset="0.367188"/><stop stop-opacity="1" stop-color="rgb(16.807556%, 40.16571%, 74.377441%)" offset="0.371094"/><stop stop-opacity="1" stop-color="rgb(16.972351%, 40.57312%, 74.589539%)" offset="0.375"/><stop stop-opacity="1" stop-color="rgb(17.13562%, 40.957642%, 74.787903%)" offset="0.378906"/><stop stop-opacity="1" stop-color="rgb(17.298889%, 41.342163%, 74.987793%)" offset="0.382813"/><stop stop-opacity="1" stop-color="rgb(17.460632%, 41.726685%, 75.187683%)" offset="0.386719"/><stop stop-opacity="1" stop-color="rgb(17.623901%, 42.112732%, 75.387573%)" offset="0.390625"/><stop stop-opacity="1" stop-color="rgb(17.78717%, 42.497253%, 75.585938%)" offset="0.394531"/><stop stop-opacity="1" stop-color="rgb(17.950439%, 42.881775%, 75.785828%)" offset="0.398438"/><stop stop-opacity="1" stop-color="rgb(18.112183%, 43.266296%, 75.984192%)" offset="0.402344"/><stop stop-opacity="1" stop-color="rgb(18.275452%, 43.650818%, 76.184082%)" offset="0.40625"/><stop stop-opacity="1" stop-color="rgb(18.438721%, 44.035339%, 76.383972%)" offset="0.410156"/><stop stop-opacity="1" stop-color="rgb(18.60199%, 44.421387%, 76.583862%)" offset="0.414062"/><stop stop-opacity="1" stop-color="rgb(18.763733%, 44.805908%, 76.782227%)" offset="0.417969"/><stop stop-opacity="1" stop-color="rgb(18.927002%, 45.19043%, 76.982117%)" offset="0.421875"/><stop stop-opacity="1" stop-color="rgb(19.090271%, 45.574951%, 77.180481%)" offset="0.425781"/><stop stop-opacity="1" stop-color="rgb(19.25354%, 45.959473%, 77.380371%)" offset="0.429688"/><stop stop-opacity="1" stop-color="rgb(19.415283%, 46.343994%, 77.580261%)" offset="0.433594"/><stop stop-opacity="1" stop-color="rgb(19.578552%, 46.728516%, 77.780151%)" offset="0.4375"/><stop stop-opacity="1" stop-color="rgb(19.741821%, 47.113037%, 77.978516%)" offset="0.441406"/><stop stop-opacity="1" stop-color="rgb(19.90509%, 47.499084%, 78.178406%)" offset="0.445313"/><stop stop-opacity="1" stop-color="rgb(20.066833%, 47.883606%, 78.37677%)" offset="0.449219"/><stop stop-opacity="1" stop-color="rgb(20.230103%, 48.268127%, 78.57666%)" offset="0.453125"/><stop stop-opacity="1" stop-color="rgb(20.393372%, 48.652649%, 78.77655%)" offset="0.457031"/><stop stop-opacity="1" stop-color="rgb(20.556641%, 49.03717%, 78.97644%)" offset="0.460938"/><stop stop-opacity="1" stop-color="rgb(20.718384%, 49.421692%, 79.174805%)" offset="0.464844"/><stop stop-opacity="1" stop-color="rgb(20.881653%, 49.807739%, 79.374695%)" offset="0.46875"/><stop stop-opacity="1" stop-color="rgb(21.044922%, 50.192261%, 79.574585%)" offset="0.472656"/><stop stop-opacity="1" stop-color="rgb(21.208191%, 50.576782%, 79.774475%)" offset="0.476562"/><stop stop-opacity="1" stop-color="rgb(21.369934%, 50.961304%, 79.972839%)" offset="0.480469"/><stop stop-opacity="1" stop-color="rgb(21.533203%, 51.345825%, 80.172729%)" offset="0.484375"/><stop stop-opacity="1" stop-color="rgb(21.696472%, 51.730347%, 80.371094%)" offset="0.488281"/><stop stop-opacity="1" stop-color="rgb(21.859741%, 52.116394%, 80.570984%)" offset="0.492188"/><stop stop-opacity="1" stop-color="rgb(22.021484%, 52.500916%, 80.770874%)" offset="0.496094"/><stop stop-opacity="1" stop-color="rgb(22.184753%, 52.885437%, 80.970764%)" offset="0.5"/><stop stop-opacity="1" stop-color="rgb(22.348022%, 53.269958%, 81.169128%)" offset="0.503906"/><stop stop-opacity="1" stop-color="rgb(22.511292%, 53.65448%, 81.369019%)" offset="0.507812"/><stop stop-opacity="1" stop-color="rgb(22.662354%, 54.020691%, 81.561279%)" offset="0.511719"/><stop stop-opacity="1" stop-color="rgb(22.814941%, 54.386902%, 81.75354%)" offset="0.515625"/><stop stop-opacity="1" stop-color="rgb(22.950745%, 54.727173%, 81.936646%)" offset="0.519531"/><stop stop-opacity="1" stop-color="rgb(23.086548%, 55.06897%, 82.119751%)" offset="0.523438"/><stop stop-opacity="1" stop-color="rgb(23.222351%, 55.409241%, 82.301331%)" offset="0.527344"/><stop stop-opacity="1" stop-color="rgb(23.35968%, 55.751038%, 82.484436%)" offset="0.53125"/><stop stop-opacity="1" stop-color="rgb(23.495483%, 56.091309%, 82.667542%)" offset="0.535156"/><stop stop-opacity="1" stop-color="rgb(23.632812%, 56.43158%, 82.850647%)" offset="0.539062"/><stop stop-opacity="1" stop-color="rgb(23.768616%, 56.771851%, 83.033752%)" offset="0.542969"/><stop stop-opacity="1" stop-color="rgb(23.904419%, 57.113647%, 83.216858%)" offset="0.546875"/><stop stop-opacity="1" stop-color="rgb(24.040222%, 57.453918%, 83.398438%)" offset="0.550781"/><stop stop-opacity="1" stop-color="rgb(24.177551%, 57.795715%, 83.581543%)" offset="0.554688"/><stop stop-opacity="1" stop-color="rgb(24.313354%, 58.135986%, 83.764648%)" offset="0.558594"/><stop stop-opacity="1" stop-color="rgb(24.450684%, 58.477783%, 83.947754%)" offset="0.5625"/><stop stop-opacity="1" stop-color="rgb(24.586487%, 58.818054%, 84.129333%)" offset="0.566406"/><stop stop-opacity="1" stop-color="rgb(24.72229%, 59.158325%, 84.312439%)" offset="0.570312"/><stop stop-opacity="1" stop-color="rgb(24.858093%, 59.498596%, 84.495544%)" offset="0.574219"/><stop stop-opacity="1" stop-color="rgb(24.995422%, 59.840393%, 84.67865%)" offset="0.578125"/><stop stop-opacity="1" stop-color="rgb(25.131226%, 60.180664%, 84.861755%)" offset="0.582031"/><stop stop-opacity="1" stop-color="rgb(25.268555%, 60.522461%, 85.044861%)" offset="0.585938"/><stop stop-opacity="1" stop-color="rgb(25.404358%, 60.862732%, 85.22644%)" offset="0.589844"/><stop stop-opacity="1" stop-color="rgb(25.541687%, 61.203003%, 85.409546%)" offset="0.59375"/><stop stop-opacity="1" stop-color="rgb(25.67749%, 61.543274%, 85.592651%)" offset="0.597656"/><stop stop-opacity="1" stop-color="rgb(25.813293%, 61.885071%, 85.775757%)" offset="0.601562"/><stop stop-opacity="1" stop-color="rgb(25.949097%, 62.225342%, 85.957336%)" offset="0.605469"/><stop stop-opacity="1" stop-color="rgb(26.086426%, 62.567139%, 86.140442%)" offset="0.609375"/><stop stop-opacity="1" stop-color="rgb(26.222229%, 62.90741%, 86.323547%)" offset="0.613281"/><stop stop-opacity="1" stop-color="rgb(26.359558%, 63.247681%, 86.506653%)" offset="0.617188"/><stop stop-opacity="1" stop-color="rgb(26.495361%, 63.587952%, 86.688232%)" offset="0.621094"/><stop stop-opacity="1" stop-color="rgb(26.631165%, 63.929749%, 86.871338%)" offset="0.625"/><stop stop-opacity="1" stop-color="rgb(26.766968%, 64.27002%, 87.054443%)" offset="0.628906"/><stop stop-opacity="1" stop-color="rgb(26.904297%, 64.611816%, 87.237549%)" offset="0.632812"/><stop stop-opacity="1" stop-color="rgb(27.0401%, 64.949036%, 87.414551%)" offset="0.636719"/><stop stop-opacity="1" stop-color="rgb(27.175903%, 65.286255%, 87.593079%)" offset="0.640625"/><stop stop-opacity="1" stop-color="rgb(27.308655%, 65.615845%, 87.757874%)" offset="0.644531"/><stop stop-opacity="1" stop-color="rgb(27.442932%, 65.945435%, 87.922668%)" offset="0.648437"/><stop stop-opacity="1" stop-color="rgb(27.577209%, 66.273499%, 88.085938%)" offset="0.652344"/><stop stop-opacity="1" stop-color="rgb(27.711487%, 66.603088%, 88.250732%)" offset="0.65625"/><stop stop-opacity="1" stop-color="rgb(27.844238%, 66.931152%, 88.415527%)" offset="0.660156"/><stop stop-opacity="1" stop-color="rgb(27.978516%, 67.260742%, 88.580322%)" offset="0.664062"/><stop stop-opacity="1" stop-color="rgb(28.112793%, 67.590332%, 88.745117%)" offset="0.667969"/><stop stop-opacity="1" stop-color="rgb(28.24707%, 67.919922%, 88.909912%)" offset="0.671875"/><stop stop-opacity="1" stop-color="rgb(28.381348%, 68.247986%, 89.073181%)" offset="0.675781"/><stop stop-opacity="1" stop-color="rgb(28.515625%, 68.577576%, 89.237976%)" offset="0.679688"/><stop stop-opacity="1" stop-color="rgb(28.648376%, 68.907166%, 89.402771%)" offset="0.683594"/><stop stop-opacity="1" stop-color="rgb(28.782654%, 69.236755%, 89.567566%)" offset="0.6875"/><stop stop-opacity="1" stop-color="rgb(28.916931%, 69.564819%, 89.732361%)" offset="0.691406"/><stop stop-opacity="1" stop-color="rgb(29.051208%, 69.894409%, 89.897156%)" offset="0.695312"/><stop stop-opacity="1" stop-color="rgb(29.18396%, 70.222473%, 90.061951%)" offset="0.699219"/><stop stop-opacity="1" stop-color="rgb(29.318237%, 70.552063%, 90.226746%)" offset="0.703125"/><stop stop-opacity="1" stop-color="rgb(29.452515%, 70.881653%, 90.390015%)" offset="0.707031"/><stop stop-opacity="1" stop-color="rgb(29.586792%, 71.211243%, 90.55481%)" offset="0.710938"/><stop stop-opacity="1" stop-color="rgb(29.719543%, 71.539307%, 90.719604%)" offset="0.714844"/><stop stop-opacity="1" stop-color="rgb(29.853821%, 71.868896%, 90.884399%)" offset="0.71875"/><stop stop-opacity="1" stop-color="rgb(29.988098%, 72.198486%, 91.049194%)" offset="0.722656"/><stop stop-opacity="1" stop-color="rgb(30.122375%, 72.528076%, 91.213989%)" offset="0.726563"/><stop stop-opacity="1" stop-color="rgb(30.256653%, 72.85614%, 91.377258%)" offset="0.730469"/><stop stop-opacity="1" stop-color="rgb(30.39093%, 73.18573%, 91.542053%)" offset="0.734375"/><stop stop-opacity="1" stop-color="rgb(30.519104%, 73.501587%, 91.700745%)" offset="0.738281"/><stop stop-opacity="1" stop-color="rgb(30.647278%, 73.817444%, 91.859436%)" offset="0.742188"/><stop stop-opacity="1" stop-color="rgb(30.757141%, 74.084473%, 91.995239%)" offset="0.746094"/><stop stop-opacity="1" stop-color="rgb(30.86853%, 74.353027%, 92.132568%)" offset="0.75"/><stop stop-opacity="1" stop-color="rgb(30.978394%, 74.621582%, 92.268372%)" offset="0.753906"/><stop stop-opacity="1" stop-color="rgb(31.089783%, 74.890137%, 92.404175%)" offset="0.757812"/><stop stop-opacity="1" stop-color="rgb(31.199646%, 75.157166%, 92.539978%)" offset="0.761719"/><stop stop-opacity="1" stop-color="rgb(31.311035%, 75.42572%, 92.677307%)" offset="0.765625"/><stop stop-opacity="1" stop-color="rgb(31.420898%, 75.694275%, 92.81311%)" offset="0.769531"/><stop stop-opacity="1" stop-color="rgb(31.532288%, 75.96283%, 92.950439%)" offset="0.773438"/><stop stop-opacity="1" stop-color="rgb(31.642151%, 76.229858%, 93.086243%)" offset="0.777344"/><stop stop-opacity="1" stop-color="rgb(31.75354%, 76.498413%, 93.223572%)" offset="0.78125"/><stop stop-opacity="1" stop-color="rgb(31.863403%, 76.765442%, 93.359375%)" offset="0.785156"/><stop stop-opacity="1" stop-color="rgb(31.974792%, 77.033997%, 93.496704%)" offset="0.789062"/><stop stop-opacity="1" stop-color="rgb(32.084656%, 77.302551%, 93.632507%)" offset="0.792969"/><stop stop-opacity="1" stop-color="rgb(32.196045%, 77.571106%, 93.768311%)" offset="0.796875"/><stop stop-opacity="1" stop-color="rgb(32.305908%, 77.838135%, 93.904114%)" offset="0.800781"/><stop stop-opacity="1" stop-color="rgb(32.415771%, 78.106689%, 94.041443%)" offset="0.804688"/><stop stop-opacity="1" stop-color="rgb(32.525635%, 78.373718%, 94.177246%)" offset="0.808594"/><stop stop-opacity="1" stop-color="rgb(32.637024%, 78.642273%, 94.314575%)" offset="0.8125"/><stop stop-opacity="1" stop-color="rgb(32.746887%, 78.910828%, 94.450378%)" offset="0.816406"/><stop stop-opacity="1" stop-color="rgb(32.858276%, 79.179382%, 94.587708%)" offset="0.820313"/><stop stop-opacity="1" stop-color="rgb(32.96814%, 79.446411%, 94.723511%)" offset="0.824219"/><stop stop-opacity="1" stop-color="rgb(33.079529%, 79.714966%, 94.859314%)" offset="0.828125"/><stop stop-opacity="1" stop-color="rgb(33.189392%, 79.983521%, 94.995117%)" offset="0.832031"/><stop stop-opacity="1" stop-color="rgb(33.300781%, 80.252075%, 95.132446%)" offset="0.835938"/><stop stop-opacity="1" stop-color="rgb(33.410645%, 80.519104%, 95.26825%)" offset="0.839844"/><stop stop-opacity="1" stop-color="rgb(33.522034%, 80.787659%, 95.405579%)" offset="0.84375"/><stop stop-opacity="1" stop-color="rgb(33.631897%, 81.054688%, 95.541382%)" offset="0.847656"/><stop stop-opacity="1" stop-color="rgb(33.743286%, 81.323242%, 95.678711%)" offset="0.851562"/><stop stop-opacity="1" stop-color="rgb(33.853149%, 81.591797%, 95.814514%)" offset="0.855469"/><stop stop-opacity="1" stop-color="rgb(33.964539%, 81.860352%, 95.951843%)" offset="0.859375"/><stop stop-opacity="1" stop-color="rgb(34.074402%, 82.12738%, 96.087646%)" offset="0.863281"/><stop stop-opacity="1" stop-color="rgb(34.184265%, 82.395935%, 96.22345%)" offset="0.867187"/><stop stop-opacity="1" stop-color="rgb(34.294128%, 82.66449%, 96.359253%)" offset="0.871094"/><stop stop-opacity="1" stop-color="rgb(34.405518%, 82.933044%, 96.496582%)" offset="0.875"/><stop stop-opacity="1" stop-color="rgb(34.515381%, 83.200073%, 96.632385%)" offset="0.878906"/><stop stop-opacity="1" stop-color="rgb(34.62677%, 83.468628%, 96.769714%)" offset="0.882812"/><stop stop-opacity="1" stop-color="rgb(34.736633%, 83.735657%, 96.905518%)" offset="0.886719"/><stop stop-opacity="1" stop-color="rgb(34.848022%, 84.004211%, 97.042847%)" offset="0.890625"/><stop stop-opacity="1" stop-color="rgb(34.957886%, 84.272766%, 97.17865%)" offset="0.894531"/><stop stop-opacity="1" stop-color="rgb(35.069275%, 84.541321%, 97.315979%)" offset="0.898438"/><stop stop-opacity="1" stop-color="rgb(35.179138%, 84.80835%, 97.451782%)" offset="0.902344"/><stop stop-opacity="1" stop-color="rgb(35.290527%, 85.076904%, 97.587585%)" offset="0.90625"/><stop stop-opacity="1" stop-color="rgb(35.357666%, 85.258484%, 97.688293%)" offset="0.914062"/><stop stop-opacity="1" stop-color="rgb(35.491943%, 85.620117%, 97.889709%)" offset="0.921875"/><stop stop-opacity="1" stop-color="rgb(35.624695%, 85.977173%, 98.0896%)" offset="0.929688"/><stop stop-opacity="1" stop-color="rgb(35.758972%, 86.334229%, 98.287964%)" offset="0.9375"/><stop stop-opacity="1" stop-color="rgb(35.891724%, 86.691284%, 98.487854%)" offset="0.945312"/><stop stop-opacity="1" stop-color="rgb(36.024475%, 87.04834%, 98.686218%)" offset="0.953125"/><stop stop-opacity="1" stop-color="rgb(36.157227%, 87.405396%, 98.886108%)" offset="0.960937"/><stop stop-opacity="1" stop-color="rgb(36.289978%, 87.762451%, 99.085999%)" offset="0.96875"/><stop stop-opacity="1" stop-color="rgb(36.422729%, 88.121033%, 99.284363%)" offset="0.976562"/><stop stop-opacity="1" stop-color="rgb(36.555481%, 88.478088%, 99.484253%)" offset="0.984375"/><stop stop-opacity="1" stop-color="rgb(36.688232%, 88.835144%, 99.684143%)" offset="0.992188"/><stop stop-opacity="1" stop-color="rgb(36.820984%, 89.1922%, 99.882507%)" offset="1"/></linearGradient><clipPath id="id4"><path d="M 76.101562 0 L 84 0 L 84 8 L 76.101562 8 Z M 76.101562 0 " clip-rule="nonzero"/></clipPath><clipPath id="id5"><path d="M 76.101562 2 L 150 2 L 150 74.25 L 76.101562 74.25 Z M 76.101562 2 " clip-rule="nonzero"/></clipPath></defs><g clip-path="url(#id1)"><g clip-path="url(#id2)"><path fill="url(#id3)" d="M 0.253906 0 L 0.253906 54.699219 L 75.46875 54.699219 L 75.46875 0 Z M 0.253906 0 " fill-rule="nonzero"/></g></g><g clip-path="url(#id4)"><path fill="#ff914d" d="M 78.496094 2.394531 L 80.894531 2.394531 L 80.894531 4.789062 L 78.496094 4.789062 Z M 78.496094 7.183594 L 80.894531 7.183594 C 82.210938 7.183594 83.289062 6.109375 83.289062 4.789062 L 83.289062 2.394531 C 83.289062 1.074219 82.210938 0 80.894531 0 L 78.496094 0 C 77.179688 0 76.101562 1.074219 76.101562 2.394531 L 76.101562 4.789062 C 76.101562 6.109375 77.179688 7.183594 78.496094 7.183594 " fill-opacity="1" fill-rule="nonzero"/></g><path fill="#ff914d" d="M 88.078125 2.394531 L 90.472656 2.394531 L 90.472656 4.789062 L 88.078125 4.789062 Z M 88.078125 7.183594 L 90.472656 7.183594 C 91.792969 7.183594 92.867188 6.109375 92.867188 4.789062 L 92.867188 2.394531 C 92.867188 1.074219 91.792969 0 90.472656 0 L 88.078125 0 C 86.757812 0 85.683594 1.074219 85.683594 2.394531 L 85.683594 4.789062 C 85.683594 6.109375 86.757812 7.183594 88.078125 7.183594 " fill-opacity="1" fill-rule="nonzero"/><path fill="#ff914d" d="M 97.660156 2.394531 L 100.054688 2.394531 L 100.054688 4.789062 L 97.660156 4.789062 Z M 97.660156 7.183594 L 100.054688 7.183594 C 101.375 7.183594 102.449219 6.109375 102.449219 4.789062 L 102.449219 2.394531 C 102.449219 1.074219 101.375 0 100.054688 0 L 97.660156 0 C 96.339844 0 95.265625 1.074219 95.265625 2.394531 L 95.265625 4.789062 C 95.265625 6.109375 96.339844 7.183594 97.660156 7.183594 " fill-opacity="1" fill-rule="nonzero"/><path fill="#ff914d" d="M 107.238281 2.394531 L 109.636719 2.394531 L 109.636719 4.789062 L 107.238281 4.789062 Z M 107.238281 7.183594 L 109.636719 7.183594 C 110.953125 7.183594 112.03125 6.109375 112.03125 4.789062 L 112.03125 2.394531 C 112.03125 1.074219 110.953125 0 109.636719 0 L 107.238281 0 C 105.921875 0 104.84375 1.074219 104.84375 2.394531 L 104.84375 4.789062 C 104.84375 6.109375 105.921875 7.183594 107.238281 7.183594 " fill-opacity="1" fill-rule="nonzero"/><path fill="#ff914d" d="M 102.097656 49.246094 L 102.800781 49.949219 L 104.492188 48.253906 L 103.792969 47.550781 C 102.492188 46.25 100.695312 45.507812 98.855469 45.507812 C 97.019531 45.507812 95.222656 46.25 93.921875 47.550781 L 93.21875 48.253906 L 94.914062 49.949219 L 95.613281 49.246094 C 96.472656 48.394531 97.648438 47.902344 98.855469 47.902344 C 100.0625 47.902344 101.242188 48.394531 102.097656 49.246094 " fill-opacity="1" fill-rule="nonzero"/><g clip-path="url(#id5)"><path fill="#ff914d" d="M 147.945312 46.6875 L 144.238281 67.066406 L 141.035156 67.066406 L 145.183594 46.3125 C 145.28125 45.84375 145.6875 45.507812 146.164062 45.507812 L 146.957031 45.507812 C 147.507812 45.507812 147.957031 45.957031 147.957031 46.507812 C 147.957031 46.570312 147.953125 46.625 147.945312 46.6875 Z M 142.367188 71.855469 L 121.609375 71.855469 L 121.609375 69.460938 L 143.804688 69.460938 L 143.546875 70.871094 C 143.4375 71.441406 142.949219 71.855469 142.367188 71.855469 Z M 95.265625 61.078125 L 95.265625 58.597656 C 95.265625 56.664062 96.839844 55.089844 98.773438 55.089844 C 100.386719 55.089844 101.789062 56.183594 102.179688 57.746094 L 103.519531 63.101562 L 101.601562 65.019531 L 103.296875 66.714844 L 105.339844 64.667969 L 119.214844 64.667969 L 119.214844 71.855469 L 106.042969 71.855469 C 100.097656 71.855469 95.265625 67.019531 95.265625 61.078125 Z M 95.265625 71.855469 L 95.265625 68.628906 C 96.144531 69.878906 97.238281 70.976562 98.492188 71.855469 Z M 85.746094 40.71875 L 95.265625 40.71875 C 96.582031 40.71875 97.660156 39.640625 97.660156 38.324219 L 97.660156 33.53125 L 100.054688 33.53125 L 100.054688 38.324219 C 100.054688 39.640625 101.128906 40.71875 102.449219 40.71875 L 111.96875 40.71875 C 111.359375 47.421875 105.714844 52.695312 98.855469 52.695312 C 92 52.695312 86.351562 47.421875 85.746094 40.71875 Z M 80.894531 40.71875 C 79.574219 40.71875 78.496094 39.640625 78.496094 38.324219 C 78.496094 37.003906 79.574219 35.925781 80.894531 35.925781 L 83.289062 35.925781 L 83.289062 39.519531 C 83.289062 39.921875 83.316406 40.320312 83.347656 40.71875 Z M 82.390625 13.664062 L 82.800781 12.429688 C 85.773438 13.703125 89.003906 14.371094 92.238281 14.371094 L 104.960938 14.371094 C 111.5 14.371094 116.820312 19.691406 116.820312 26.230469 C 116.820312 27.742188 116.535156 29.222656 115.972656 30.632812 L 114.8125 33.53125 L 114.425781 33.53125 L 114.425781 28.742188 C 114.425781 26.097656 112.277344 23.953125 109.636719 23.953125 L 94.210938 23.953125 C 91.859375 23.953125 89.8125 22.355469 89.238281 20.070312 L 86.917969 20.648438 C 87.207031 21.824219 87.765625 22.871094 88.519531 23.742188 L 86.5625 24.390625 C 84.605469 25.046875 83.289062 26.871094 83.289062 28.933594 L 83.289062 33.53125 L 82.914062 33.53125 C 81.574219 30.132812 80.894531 26.550781 80.894531 22.894531 C 80.894531 19.75 81.398438 16.648438 82.390625 13.664062 Z M 102.449219 33.53125 L 112.03125 33.53125 L 112.03125 38.324219 L 102.449219 38.324219 Z M 116.820312 35.925781 C 118.140625 35.925781 119.214844 37.003906 119.214844 38.324219 C 119.214844 39.640625 118.140625 40.71875 116.820312 40.71875 L 114.363281 40.71875 C 114.390625 40.320312 114.425781 39.921875 114.425781 39.519531 L 114.425781 35.925781 Z M 85.683594 31.136719 L 85.683594 28.933594 C 85.683594 27.90625 86.34375 26.992188 87.320312 26.664062 L 90.769531 25.515625 C 91.808594 26.046875 92.980469 26.347656 94.210938 26.347656 L 109.636719 26.347656 C 110.953125 26.347656 112.03125 27.421875 112.03125 28.742188 L 112.03125 31.136719 Z M 85.683594 33.53125 L 95.265625 33.53125 L 95.265625 38.324219 L 85.683594 38.324219 Z M 104.503906 57.164062 C 104.34375 56.539062 104.085938 55.964844 103.753906 55.441406 C 107.039062 56.34375 109.660156 58.933594 110.566406 62.273438 L 105.78125 62.273438 Z M 121.609375 64.667969 C 122.929688 64.667969 124.007812 65.746094 124.007812 67.066406 L 121.609375 67.066406 Z M 126.402344 67.066406 C 126.402344 64.421875 124.253906 62.273438 121.609375 62.273438 L 113.035156 62.273438 C 112.164062 58.238281 109.3125 54.992188 105.597656 53.53125 C 109.761719 51.519531 112.894531 47.710938 113.988281 43.113281 L 116.820312 43.113281 C 116.820312 44.433594 117.894531 45.507812 119.214844 45.507812 L 142.933594 45.507812 C 142.902344 45.621094 142.859375 45.726562 142.835938 45.839844 L 138.59375 67.066406 Z M 119.214844 4.789062 L 147.957031 4.789062 L 147.957031 43.113281 L 119.214844 43.113281 L 119.214844 42.449219 C 120.640625 41.617188 121.609375 40.085938 121.609375 38.324219 C 121.609375 35.871094 119.75 33.863281 117.371094 33.589844 L 118.195312 31.519531 C 118.875 29.828125 119.214844 28.050781 119.214844 26.230469 Z M 150.351562 4.789062 C 150.351562 3.472656 149.277344 2.394531 147.957031 2.394531 L 119.214844 2.394531 C 117.894531 2.394531 116.820312 3.472656 116.820312 4.789062 L 116.820312 18.332031 C 114.261719 14.507812 109.902344 11.976562 104.960938 11.976562 L 92.238281 11.976562 C 88.921875 11.976562 85.59375 11.191406 82.628906 9.707031 L 81.394531 9.089844 L 80.121094 12.910156 C 79.046875 16.132812 78.496094 19.492188 78.496094 22.894531 C 78.496094 26.5625 79.132812 30.148438 80.367188 33.582031 C 77.980469 33.851562 76.101562 35.863281 76.101562 38.324219 C 76.101562 40.964844 78.25 43.113281 80.894531 43.113281 L 83.722656 43.113281 C 85.023438 48.578125 89.195312 52.925781 94.5625 54.472656 C 93.519531 55.539062 92.867188 56.992188 92.867188 58.597656 L 92.867188 74.25 L 142.367188 74.25 C 144.101562 74.25 145.589844 73.011719 145.898438 71.296875 L 150.300781 47.113281 C 150.335938 46.917969 150.351562 46.710938 150.351562 46.507812 C 150.351562 45.816406 150.140625 45.175781 149.785156 44.636719 C 150.136719 44.222656 150.351562 43.699219 150.351562 43.113281 L 150.351562 4.789062 " fill-opacity="1" fill-rule="nonzero"/></g><path fill="#ff914d" d="M 126.402344 19.160156 L 128.796875 19.160156 L 128.796875 16.765625 L 126.402344 16.765625 C 125.082031 16.765625 124.007812 15.691406 124.007812 14.371094 C 124.007812 13.050781 125.082031 11.976562 126.402344 11.976562 L 128.796875 11.976562 L 128.796875 9.582031 L 126.402344 9.582031 C 123.757812 9.582031 121.609375 11.726562 121.609375 14.371094 C 121.609375 17.015625 123.757812 19.160156 126.402344 19.160156 " fill-opacity="1" fill-rule="nonzero"/><path fill="#ff914d" d="M 137.179688 16.765625 L 137.179688 16.210938 C 137.179688 15.40625 136.78125 14.660156 136.113281 14.214844 L 133.585938 12.53125 L 133.585938 11.976562 L 137.179688 11.976562 L 137.179688 9.582031 L 133.585938 9.582031 C 132.265625 9.582031 131.191406 10.65625 131.191406 11.976562 L 131.191406 12.53125 C 131.191406 13.335938 131.589844 14.082031 132.257812 14.523438 L 134.785156 16.210938 L 134.785156 16.765625 L 131.191406 16.765625 L 131.191406 19.160156 L 134.785156 19.160156 C 136.101562 19.160156 137.179688 18.085938 137.179688 16.765625 " fill-opacity="1" fill-rule="nonzero"/><path fill="#ff914d" d="M 145.5625 16.765625 L 145.5625 16.210938 C 145.5625 15.40625 145.164062 14.660156 144.496094 14.214844 L 141.96875 12.53125 L 141.96875 11.976562 L 145.5625 11.976562 L 145.5625 9.582031 L 141.96875 9.582031 C 140.652344 9.582031 139.574219 10.65625 139.574219 11.976562 L 139.574219 12.53125 C 139.574219 13.335938 139.972656 14.082031 140.640625 14.523438 L 143.167969 16.210938 L 143.167969 16.765625 L 139.574219 16.765625 L 139.574219 19.160156 L 143.167969 19.160156 C 144.488281 19.160156 145.5625 18.085938 145.5625 16.765625 " fill-opacity="1" fill-rule="nonzero"/><path fill="#ff914d" d="M 140.773438 28.535156 C 140.773438 29.761719 141.25 30.914062 142.113281 31.777344 L 142.671875 32.335938 L 142.113281 32.890625 C 141.25 33.757812 140.773438 34.90625 140.773438 36.132812 C 140.773438 37.339844 139.789062 38.324219 138.582031 38.324219 L 138.375 38.324219 L 138.375 40.71875 L 138.582031 40.71875 C 141.109375 40.71875 143.167969 38.660156 143.167969 36.132812 C 143.167969 35.546875 143.394531 34.996094 143.808594 34.585938 L 146.058594 32.335938 L 143.808594 30.085938 C 143.394531 29.671875 143.167969 29.121094 143.167969 28.535156 C 143.167969 26.011719 141.109375 23.953125 138.582031 23.953125 L 138.375 23.953125 L 138.375 26.347656 L 138.582031 26.347656 C 139.789062 26.347656 140.773438 27.328125 140.773438 28.535156 " fill-opacity="1" fill-rule="nonzero"/><path fill="#ff914d" d="M 124.007812 36.132812 C 124.007812 38.660156 126.0625 40.71875 128.589844 40.71875 L 128.796875 40.71875 L 128.796875 38.324219 L 128.589844 38.324219 C 127.382812 38.324219 126.402344 37.339844 126.402344 36.132812 C 126.402344 34.90625 125.925781 33.757812 125.058594 32.890625 L 124.5 32.335938 L 125.058594 31.777344 C 125.925781 30.914062 126.402344 29.761719 126.402344 28.535156 C 126.402344 27.328125 127.382812 26.347656 128.589844 26.347656 L 128.796875 26.347656 L 128.796875 23.953125 L 128.589844 23.953125 C 126.0625 23.953125 124.007812 26.011719 124.007812 28.535156 C 124.007812 29.121094 123.777344 29.671875 123.363281 30.085938 L 121.113281 32.335938 L 123.363281 34.585938 C 123.777344 34.996094 124.007812 35.546875 124.007812 36.132812 " fill-opacity="1" fill-rule="nonzero"/><path fill="#ff914d" d="M 127.597656 33.53125 L 129.992188 33.53125 L 129.992188 31.136719 L 127.597656 31.136719 L 127.597656 33.53125 " fill-opacity="1" fill-rule="nonzero"/><path fill="#ff914d" d="M 132.390625 33.53125 L 134.785156 33.53125 L 134.785156 31.136719 L 132.390625 31.136719 L 132.390625 33.53125 " fill-opacity="1" fill-rule="nonzero"/><path fill="#ff914d" d="M 139.574219 31.136719 L 137.179688 31.136719 L 137.179688 33.53125 L 139.574219 33.53125 L 139.574219 31.136719 " fill-opacity="1" fill-rule="nonzero"/></svg>